<?xml version="1.0" standalone="no"?>
<!DOCTYPE svg PUBLIC "-//W3C//DTD SVG 20010904//EN"
 "http://www.w3.org/TR/2001/REC-SVG-20010904/DTD/svg10.dtd">
<svg version="1.0" xmlns="http://www.w3.org/2000/svg"
 width="1024.000000pt" height="1024.000000pt" viewBox="0 0 1024.000000 1024.000000"
 preserveAspectRatio="xMidYMid meet">

<g transform="translate(0.000000,1024.000000) scale(0.100000,-0.100000)"
fill="#000000" stroke="none">
<path d="M5091 9342 c-13 -2 -64 -43 -115 -90 -201 -192 -1302 -1286 -1313
-1306 -16 -27 -16 -87 0 -107 36 -47 45 -48 347 -44 157 3 297 2 313 -1 l27
-6 0 -513 0 -513 -72 -37 c-62 -32 -200 -109 -338 -188 -19 -11 -80 -44 -135
-73 -55 -29 -149 -79 -209 -111 -61 -32 -118 -71 -130 -86 l-21 -28 0 -961 0
-960 32 -27 c17 -14 53 -37 80 -51 26 -14 129 -69 228 -124 99 -54 254 -139
345 -189 91 -49 177 -99 192 -109 l28 -19 0 -415 c0 -387 -1 -414 -17 -414
-10 -1 -152 -1 -316 0 l-298 1 -36 -36 c-32 -32 -35 -39 -30 -77 5 -39 29 -64
374 -410 202 -203 524 -522 715 -709 319 -313 349 -339 381 -339 22 0 48 10
73 29 21 16 342 332 712 703 709 712 678 677 673 758 -1 14 -15 37 -32 53
l-29 27 -310 0 c-288 0 -310 1 -310 18 -1 9 -2 196 -3 414 l-2 398 110 61 c89
51 329 190 403 234 23 14 203 111 282 153 36 18 76 45 90 58 l25 24 0 953 0
952 -23 32 c-16 23 -69 55 -200 121 -97 50 -262 140 -367 201 -104 61 -216
121 -248 133 -32 11 -60 25 -63 29 -7 12 -5 1031 2 1038 3 3 145 6 316 6 l310
0 28 32 c24 27 28 39 25 79 -3 47 -5 50 -161 203 -933 919 -1226 1206 -1241
1216 -22 15 -60 22 -92 17z m230 -424 c223 -233 815 -818 882 -872 26 -22 44
-43 40 -47 -4 -4 -117 -9 -250 -11 -237 -3 -243 -4 -265 -26 l-23 -23 -3 -534
c-1 -294 -6 -535 -11 -535 -9 0 -67 22 -116 45 -16 7 -46 20 -65 28 -142 61
-236 105 -306 143 -45 24 -93 44 -108 44 -15 0 -78 -26 -139 -59 -62 -32 -178
-93 -258 -134 -80 -42 -149 -74 -152 -70 -4 3 -7 244 -7 535 l0 529 -25 24
c-13 14 -34 25 -47 26 -13 0 -120 0 -238 -1 -121 0 -221 4 -230 9 -11 8 25 47
165 182 99 95 353 345 565 556 212 211 390 383 396 383 5 0 93 -87 195 -192z
m-143 -1996 c20 -10 98 -55 172 -99 74 -44 223 -123 330 -176 189 -92 312
-157 604 -315 76 -42 152 -83 170 -91 17 -9 31 -23 31 -30 0 -15 -97 -75 -236
-147 -172 -88 -403 -212 -529 -284 -148 -84 -390 -215 -514 -278 l-78 -40
-127 65 c-69 36 -130 69 -136 73 -5 4 -111 62 -235 128 -540 287 -865 466
-875 482 -7 12 170 108 565 306 228 115 379 193 615 319 132 70 198 104 203
105 2 0 20 -8 40 -18z m-1423 -944 c44 -25 134 -73 200 -108 169 -88 244 -130
290 -158 22 -14 123 -69 225 -122 305 -160 330 -174 448 -239 l112 -63 0 -804
c0 -441 -3 -805 -8 -808 -6 -3 -307 157 -642 342 -93 51 -251 136 -350 189
-359 191 -379 204 -390 242 -11 40 -14 1583 -3 1594 3 4 13 1 22 -7 9 -7 52
-34 96 -58z m2863 -749 l-2 -799 -60 -39 c-89 -58 -216 -129 -346 -195 -246
-125 -487 -257 -755 -411 -203 -117 -222 -127 -229 -109 -3 8 -6 371 -6 805
l0 788 53 34 c28 18 104 61 167 96 115 64 244 136 485 272 247 140 679 368
687 363 4 -3 7 -365 6 -805z m-918 -1970 c0 -466 1 -471 61 -483 17 -3 137 -6
265 -6 211 0 234 -2 234 -16 0 -10 -62 -76 -137 -148 -75 -72 -319 -312 -542
-533 -223 -220 -420 -413 -438 -427 l-31 -26 -228 237 c-125 131 -379 387
-563 570 -185 182 -333 334 -330 338 4 3 117 7 252 8 245 2 245 2 271 26 l26
24 0 429 c0 301 3 428 11 428 18 0 388 -184 463 -230 60 -36 76 -41 110 -38
46 6 180 69 406 192 85 46 158 82 162 80 5 -3 8 -194 8 -425z"/>
</g>
</svg>
